<svg id="Calque_1" data-name="Calque 1" xmlns="http://www.w3.org/2000/svg" viewBox="0 0 258.41 106.33"><defs><style>.cls-1{fill:#1d1d1b;}.cls-2{fill:#1d1c1b;}.cls-3{fill:#414141;}</style></defs><title>IGC</title><path d="M82.31,26.39a5.16,5.16,0,0,0-1.15-.29,11.79,11.79,0,0,0-5.69,1c-2.37,1-6.35,5.53-3.06,7.83,3.12,2.18,6.14-2.6,7.55-4.58a14.08,14.08,0,0,1,2.66-2.61C83.44,27.08,83,26.65,82.31,26.39Z" transform="translate(-47.4 -26)"/><path d="M80.83,100.6c-1.22,1.29-2.41,2.65-3.65,3.93-1.6,1.67-3.83,3.68-4.78,6a9.63,9.63,0,0,0-.67,2.88q-1.88-3.54-3.38-7.21c1.74-2.22,4.26-2.34,6.14-4.36,3-3.24,2.75-9,3-12a5.82,5.82,0,0,0-.05-.76c-.05-.49-.68-.58-1.23-.18-1.3,1-2.6,2-3.91,2.92l-.82.58a16.79,16.79,0,0,0-4.5,4,8.87,8.87,0,0,0-1.07,2.23c0,.1-.05.21-.08.31q-1.13-3.71-1.89-7.5c2-1.86,4.56-2,6.66-3.61,3.29-2.51,3.72-7.48,4.32-10.36a5.72,5.72,0,0,0,.05-.74c0-.48-.56-.68-1.14-.39-1.31.66-2.65,1.37-4,2l-.83.4a16.45,16.45,0,0,0-4.72,2.89,8.17,8.17,0,0,0-1.37,1.81c-.06.11-.11.23-.17.34q-.4-3.77-.45-7.56c2.13-1.52,4.74-1.75,7-2.92,3.47-1.81,4.49-6,5.46-8.73a5.76,5.76,0,0,0,.15-.71c.08-.47-.43-.77-1-.59-1.29.4-2.6.85-3.9,1.24l-.81.24a16.82,16.82,0,0,0-4.74,1.86,7.6,7.6,0,0,0-1.57,1.37c-.1.11-.19.23-.28.35q.31-3.71,1-7.39c2.27-1.19,4.83-1,7.16-1.75,3.55-1.17,5.11-5.13,6.44-7.69a6,6,0,0,0,.25-.69c.15-.45-.3-.84-.89-.75-1.23.19-2.49.42-3.73.61L72,50.9a18.52,18.52,0,0,0-4.61,1,7.21,7.21,0,0,0-1.67,1c-.14.11-.26.22-.39.33q1-3.54,2.31-7c2.4-.89,4.86-.25,7.24-.66,3.7-.62,5.7-5.21,7.5-8,.18-.28.36-.63.21-.93a.86.86,0,0,0-.84-.34,13,13,0,0,0-3.78,1.17c-2.7,1-6.35-.08-8.41,2.26.31-.35,0-2.16,0-2.7-.18-2.32-.67-2.64-1.25-4.76a41.29,41.29,0,0,1-1-5.18c-.1-.74-.61-1-1-.46a9.45,9.45,0,0,0-.57.82c-2,3.43-5.25,6.77-3.71,10.89,1,2.71,3,4.5,4,7.14q-1.4,3.53-2.47,7.16c0-.17-.08-.34-.13-.52a12.21,12.21,0,0,0-.83-2.09,32.24,32.24,0,0,0-3.11-5c-.42-.55-2.65-4-3.22-2.71a9.83,9.83,0,0,0-.38,1c-.86,2.94-1.79,6.19-1.06,9.3.9,3.84,4.54,5.16,6.77,8.06q-.73,3.79-1.1,7.63c-.06-.13-.12-.25-.18-.38A11.31,11.31,0,0,0,59,65.89a32.1,32.1,0,0,0-3.9-3.62c-.27-.24-.53-.48-.79-.72a38,38,0,0,1-3-3.3l-.12-.13c-.45-.48-1-.34-1.12.32a10.43,10.43,0,0,0-.15,1.06c-.17,3.16-.25,6.61,1.22,9.54,1.75,3.47,5.91,5.08,8.92,7.24q0,3.94.34,7.88l-.19-.25a10.63,10.63,0,0,0-1.74-1.69,24.37,24.37,0,0,0-4.9-2.58c-.34-.16-.68-.32-1-.48a36,36,0,0,1-3.93-2.43l-.15-.1c-.57-.37-1.12,0-1.09.67a10.66,10.66,0,0,0,.09,1.11c.47,3,1.26,6.47,3.35,8.84a11.26,11.26,0,0,0,4.71,2.93c.75.28,5.84,1.39,5.93,1.89q.74,4,1.86,7.87l-.16-.14A10.15,10.15,0,0,0,61,98.44a20.54,20.54,0,0,0-5.67-1.27c-.4-.06-.79-.12-1.16-.19a34.35,34.35,0,0,1-4.66-1.31l-.18-.06c-.67-.22-1.16.29-1,1a11,11,0,0,0,.35,1.11c1.28,3.07,3.09,6.26,6.06,8A12.65,12.65,0,0,0,60.24,107c.68.06,5.54.18,5.66.48q1.52,3.87,3.43,7.61a9.88,9.88,0,0,0-2.62-1c-2.35-.51-5.16.19-7.4.41a34.7,34.7,0,0,1-5.33,0c-.74,0-1.13.64-.75,1.36a11.34,11.34,0,0,0,.62,1.06c2.15,3,5,6,8.76,6.83s7.26-.81,10.7-1.75a85.44,85.44,0,0,0,5.88,8.12,1.13,1.13,0,0,0,2-.47l.25-.71a1.48,1.48,0,0,0-.21-1.43,68.61,68.61,0,0,1-5-6.91c1.33-1.65,3.81-3.78,5.38-6.23,2.53-4,1-9.92.72-13.08a6,6,0,0,0-.17-.77C82,100,81.34,100.06,80.83,100.6Z" transform="translate(-47.4 -26)"/><path d="M270.91,26.39a5.16,5.16,0,0,1,1.15-.29,11.79,11.79,0,0,1,5.69,1c2.37,1,6.35,5.53,3.06,7.83-3.12,2.18-6.14-2.6-7.55-4.58a14.08,14.08,0,0,0-2.66-2.61C269.78,27.08,270.26,26.65,270.91,26.39Z" transform="translate(-47.4 -26)"/><path d="M272.39,100.6c1.22,1.29,2.41,2.65,3.65,3.93,1.6,1.67,3.83,3.68,4.78,6a9.63,9.63,0,0,1,.67,2.88q1.88-3.54,3.38-7.21c-1.74-2.22-4.26-2.34-6.14-4.36-3-3.24-2.75-9-3-12a5.82,5.82,0,0,1,.05-.76c.05-.49.68-.58,1.23-.18,1.3,1,2.6,2,3.91,2.92l.82.58a16.79,16.79,0,0,1,4.5,4,8.87,8.87,0,0,1,1.07,2.23c0,.1.05.21.08.31q1.13-3.71,1.89-7.5c-2-1.86-4.56-2-6.66-3.61-3.29-2.51-3.72-7.48-4.32-10.36a5.72,5.72,0,0,1-.05-.74c0-.48.56-.68,1.14-.39,1.31.66,2.65,1.37,4,2l.83.4A16.45,16.45,0,0,1,289,81.73a8.17,8.17,0,0,1,1.37,1.81c.06.11.11.23.17.34q.4-3.77.45-7.56c-2.13-1.52-4.74-1.75-7-2.92-3.47-1.81-4.49-6-5.46-8.73a5.76,5.76,0,0,1-.15-.71c-.08-.47.43-.77,1-.59,1.29.4,2.6.85,3.9,1.24l.81.24a16.82,16.82,0,0,1,4.74,1.86,7.6,7.6,0,0,1,1.57,1.37c.1.11.19.23.28.35q-.31-3.71-1-7.39c-2.27-1.19-4.83-1-7.16-1.75-3.55-1.17-5.11-5.13-6.44-7.69a6,6,0,0,1-.25-.69c-.15-.45.3-.84.89-.75,1.23.19,2.49.42,3.73.61l.77.11a18.52,18.52,0,0,1,4.61,1,7.21,7.21,0,0,1,1.67,1c.14.11.26.22.39.33q-1-3.54-2.31-7c-2.4-.89-4.86-.25-7.24-.66-3.7-.62-5.7-5.21-7.5-8-.18-.28-.36-.63-.21-.93a.86.86,0,0,1,.84-.34,13,13,0,0,1,3.78,1.17c2.7,1,6.35-.08,8.41,2.26-.31-.35,0-2.16,0-2.7.18-2.32.67-2.64,1.25-4.76a41.29,41.29,0,0,0,1-5.18c.1-.74.61-1,1-.46a9.45,9.45,0,0,1,.57.82c2,3.43,5.25,6.77,3.71,10.89-1,2.71-3,4.5-4,7.14q1.4,3.53,2.47,7.16c0-.17.08-.34.13-.52a12.21,12.21,0,0,1,.83-2.09,32.24,32.24,0,0,1,3.11-5c.42-.55,2.65-4,3.22-2.71a9.83,9.83,0,0,1,.38,1c.86,2.94,1.79,6.19,1.06,9.3-.9,3.84-4.54,5.16-6.77,8.06q.73,3.79,1.1,7.63c.06-.13.12-.25.18-.38a11.31,11.31,0,0,1,1.3-1.94,32.1,32.1,0,0,1,3.9-3.62c.27-.24.53-.48.79-.72a38,38,0,0,0,3-3.3l.12-.13c.45-.48,1-.34,1.12.32a10.43,10.43,0,0,1,.15,1.06c.17,3.16.25,6.61-1.22,9.54-1.75,3.47-5.91,5.08-8.92,7.24q0,3.94-.34,7.88l.19-.25a10.63,10.63,0,0,1,1.74-1.69,24.37,24.37,0,0,1,4.9-2.58c.34-.16.68-.32,1-.48a36,36,0,0,0,3.93-2.43l.15-.1c.57-.37,1.12,0,1.09.67a10.66,10.66,0,0,1-.09,1.11c-.47,3-1.26,6.47-3.35,8.84a11.26,11.26,0,0,1-4.71,2.93c-.75.28-5.84,1.39-5.93,1.89q-.74,4-1.86,7.87l.16-.14a10.15,10.15,0,0,1,2.15-1.35,20.54,20.54,0,0,1,5.67-1.27c.4-.06.79-.12,1.16-.19a34.35,34.35,0,0,0,4.66-1.31l.18-.06c.67-.22,1.16.29,1,1a11,11,0,0,1-.35,1.11c-1.28,3.07-3.09,6.26-6.06,8A12.65,12.65,0,0,1,293,107c-.68.06-5.54.18-5.66.48q-1.52,3.87-3.43,7.61a9.88,9.88,0,0,1,2.62-1c2.35-.51,5.16.19,7.4.41a34.7,34.7,0,0,0,5.33,0c.74,0,1.13.64.75,1.36a11.34,11.34,0,0,1-.62,1.06c-2.15,3-5,6-8.76,6.83s-7.26-.81-10.7-1.75a85.44,85.44,0,0,1-5.88,8.12,1.13,1.13,0,0,1-2-.47l-.25-.71a1.48,1.48,0,0,1,.21-1.43,68.61,68.61,0,0,0,5-6.91c-1.33-1.65-3.81-3.78-5.38-6.23-2.53-4-1-9.92-.72-13.08a6,6,0,0,1,.17-.77C271.23,100,271.88,100.06,272.39,100.6Z" transform="translate(-47.4 -26)"/><path class="cls-1" d="M170.37,35.23h-2.13c0-5.9,3-9.13,8.63-9.18,5.16-.1,8.23,3.12,8.73,7.19A16.58,16.58,0,0,1,182.52,44c-3.52,4.76-7.19,10.17-10.86,15.23l15.08-.1v2.18H167.89v-.55l12.9-18.05C185,37,185,28.13,176.92,28.13,172.75,28.13,170.42,30.46,170.37,35.23Z" transform="translate(-47.4 -26)"/><path class="cls-1" d="M215.75,38.05V49.86c0,8-4.76,12-10.81,12s-10.86-4.07-10.86-12V38.05c0-7.84,4.76-12,10.86-12S215.75,29.92,215.75,38.05ZM213.57,50V38.1c0-6.15-2.68-10-8.63-10-5.26,0-8.63,3.57-8.63,10V50c0,5.51,2.83,9.62,8.63,9.62C210.5,59.58,213.57,56.21,213.57,50Z" transform="translate(-47.4 -26)"/><path class="cls-1" d="M231.23,26.55V59.23h6.15v2H222.8v-2h6.15V28.53h-5.41v-2Z" transform="translate(-47.4 -26)"/><path class="cls-1" d="M264.46,51.45c0,6.84-4.91,10.37-10.71,10.37s-10.66-3.67-10.66-10.37a9.61,9.61,0,0,1,6.5-9.47A7.63,7.63,0,0,1,245,34.58C245,29.17,249,26,253.74,26s8.93,2.88,8.93,8.58A7.94,7.94,0,0,1,257.76,42,9.8,9.8,0,0,1,264.46,51.45Zm-2.33,0c0-5.56-4.17-8.23-8.38-8.23s-8.33,2.68-8.33,8.23a8,8,0,0,0,8.33,8.33C258,59.73,262.13,57.1,262.13,51.4Zm-1.69-16.77c0-4.66-3.27-6.65-6.7-6.65a6.28,6.28,0,0,0-6.6,6.7c0,4.22,3.27,6.4,6.6,6.4S260.44,38.95,260.44,34.63Z" transform="translate(-47.4 -26)"/><rect class="cls-1" x="119.7" y="41.81" width="98.66" height="1.98"/><rect class="cls-1" x="41.18" y="75.43" width="177.19" height="1.98"/><path class="cls-1" d="M100.06,125a9.6,9.6,0,0,1-6.46,2.5c-3.67,0-6.14-2.19-6.14-6.22a13.15,13.15,0,0,1,4.84-9.69,9.81,9.81,0,0,1,6.14-2.4,6,6,0,0,1,6.3,6.27A13.58,13.58,0,0,1,100.06,125ZM98.36,110c-1.64,0-2.92.94-4.22,3.12a22.93,22.93,0,0,0-2.94,10.1c0,2,1,3.31,2.66,3.31s2.81-1.07,4.09-3a22.23,22.23,0,0,0,3-10.36C101,111.08,99.93,110,98.36,110Z" transform="translate(-47.4 -26)"/><path class="cls-1" d="M126.74,123.69c-1.74,2.73-2.79,3.54-4.35,3.54a1.63,1.63,0,0,1-1.85-1.72,7,7,0,0,1,.39-2.19l1.82-6.93h-3.91l-2.45,10a12.62,12.62,0,0,1-2,4.17,4.42,4.42,0,0,1-3.41,1.75c-1.46,0-2.53-.86-2.53-2a1.3,1.3,0,0,1,1.28-1.43,1.28,1.28,0,0,1,1.33,1.3c0,.6-.49.68-.49,1,0,.16.13.34.44.34,1.15,0,1.59-1,2.42-4.69l2.32-10.44h-4.24c-1.46,6.9-1.77,8.15-2.47,10.26-.81,2.4-1.41,3.57-2.34,4.48a4.11,4.11,0,0,1-3,1.2c-1.46,0-2.58-.81-2.58-2.06a1.39,1.39,0,0,1,1.33-1.43,1.28,1.28,0,0,1,1.3,1.28c0,.65-.42.73-.42,1.09,0,.21.21.31.47.31,1,0,1.54-1.07,2.34-4.92.16-.76,1-4.48,2.29-10.21h-1.93l.23-1.09h1.93a13.8,13.8,0,0,1,2.06-4.71,4.59,4.59,0,0,1,3.83-1.77c1.56,0,2.53.75,2.53,2a1.31,1.31,0,0,1-1.33,1.41,1.18,1.18,0,0,1-1.22-1.25c0-.6.42-.73.42-1.09,0-.21-.21-.34-.47-.34-.89,0-1.77,1.46-2.4,4l-.42,1.72H116c1-3,1.38-4,2.89-5.26a6.4,6.4,0,0,1,3.93-1.35c2.29,0,3.7,1,3.7,2.47a1.43,1.43,0,0,1-1.48,1.51,1.47,1.47,0,0,1-1.51-1.46c0-.75.57-.88.57-1.3s-.23-.44-.68-.44a3.05,3.05,0,0,0-2.34,1c-.83,1-1.22,2-2,4.87h3c.39,0,1.43-.1,4.06-.26l-2,7.29a17.32,17.32,0,0,0-.52,2.66.45.45,0,0,0,.39.42c.42,0,1-.6,2-2.06Z" transform="translate(-47.4 -26)"/><path class="cls-1" d="M136.84,123.76a9.52,9.52,0,0,1-3,3.1,4.57,4.57,0,0,1-2.16.47,3.65,3.65,0,0,1-4-3.93,8.93,8.93,0,0,1,2.73-6.22,6.65,6.65,0,0,1,4.69-2.21c1.56,0,2.92,1,2.92,2.34a1.66,1.66,0,0,1-1.61,1.85,1.41,1.41,0,0,1-1.51-1.38c0-.78.55-.94.55-1.51,0-.26-.31-.44-.62-.44-1,0-1.69,1-2.42,2.29a11.39,11.39,0,0,0-1.38,5.23c0,1.51.75,2.32,1.9,2.32s1.93-.62,3.18-2.37Z" transform="translate(-47.4 -26)"/><path class="cls-1" d="M145.58,123.66c-1.72,2.81-2.81,3.57-4.37,3.57-1.07,0-1.77-.52-1.77-1.64a8.94,8.94,0,0,1,.39-2l1.43-5.29a5.38,5.38,0,0,0,.21-1.17c0-.5-.42-.76-1.2-.76h-.36v-.7a39.21,39.21,0,0,0,5.29-.73l-2.37,8.7a6.53,6.53,0,0,0-.23,1.33.36.36,0,0,0,.39.42c.39,0,1-.6,1.67-1.59l.36-.52Zm-1.15-11a1.72,1.72,0,0,1-1.72-1.8,1.76,1.76,0,0,1,1.69-1.69,1.79,1.79,0,0,1,1.8,1.77A1.73,1.73,0,0,1,144.44,112.67Z" transform="translate(-47.4 -26)"/><path class="cls-1" d="M158.49,124.08c-1.51,2.45-2.84,3.28-4.06,3.28a1.51,1.51,0,0,1-1.64-1.67,6.13,6.13,0,0,1,.36-1.8c-1.46,2.47-2.68,3.44-4.27,3.44s-2.81-1.33-2.81-3.31a10.36,10.36,0,0,1,2.26-6c1.38-1.82,3.15-3,4.84-3,1.12,0,1.69.55,1.93,1.87h0l.44-1.54,2.89-.18-2,6.53a12.63,12.63,0,0,0-.78,3.46c0,.23.1.39.31.39.42,0,.83-.39,1.9-1.82Zm-4.95-8c-1.09,0-2.08,1.51-2.81,3a13.83,13.83,0,0,0-1.46,4.95c0,1,.44,1.48,1.12,1.48s1.54-.68,2.24-2a15.79,15.79,0,0,0,1.87-6.25C154.51,116.58,154.12,116.06,153.55,116.06Z" transform="translate(-47.4 -26)"/><path class="cls-1" d="M163.41,122.41a13.64,13.64,0,0,0-.57,2.6.37.37,0,0,0,.39.39c.47,0,1-.55,2.06-2.08l.57.36c-1.8,2.73-2.73,3.54-4.4,3.54a1.64,1.64,0,0,1-1.77-1.64,22.37,22.37,0,0,1,.88-4l1.93-6.74a19.39,19.39,0,0,0,.89-3.78c0-.52-.39-.78-1.09-.78a5.5,5.5,0,0,0-.57,0v-.7a53,53,0,0,0,5.47-.78Z" transform="translate(-47.4 -26)"/><path class="cls-1" d="M181.45,119l-.7-.05c-.42-2.16-1.09-3.12-2.29-3.12a1.3,1.3,0,0,0-1.38,1.38c0,.6.47,1.41,1.48,2.58,1.56,1.82,2.08,3,2.08,4.22,0,2-1.72,3.33-3.85,3.33a4.3,4.3,0,0,1-1.67-.31,2.48,2.48,0,0,0-.78-.21.77.77,0,0,0-.76.52h-.7l.57-4.32.7.08c.29,2.29,1.09,3.46,2.42,3.46,1,0,1.56-.57,1.56-1.41s-.42-1.54-1.46-2.71c-1.77-2-2.08-2.79-2.08-4.19,0-2.08,1.38-3.28,3.49-3.28a3.65,3.65,0,0,1,1.51.31,2.13,2.13,0,0,0,1,.26c.39,0,.49-.1.73-.55h.76Z" transform="translate(-47.4 -26)"/><path class="cls-1" d="M192.52,123.71c-1.46,2.6-3.07,3.62-5.08,3.62a3.47,3.47,0,0,1-3.8-3.83c0-4.3,3.72-8.54,7.5-8.54,1.69,0,2.73.94,2.73,2.27a4.52,4.52,0,0,1-1.8,3.18c-1.12.94-2.37,1.41-4.89,1.85a6.07,6.07,0,0,0-.16,1.28c0,1.41.57,2.14,1.67,2.14s1.87-.6,3.07-2.4Zm-1.85-7.89c-1.25,0-2.37,2-3.31,5.6a5,5,0,0,0,4.11-4.58C191.47,116.24,191.29,115.82,190.67,115.82Z" transform="translate(-47.4 -26)"/><path class="cls-1" d="M198.84,122.41a13.67,13.67,0,0,0-.57,2.6.37.37,0,0,0,.39.39c.47,0,1-.55,2.06-2.08l.57.36c-1.8,2.73-2.73,3.54-4.4,3.54a1.64,1.64,0,0,1-1.77-1.64,22.29,22.29,0,0,1,.88-4l1.93-6.74a19.39,19.39,0,0,0,.89-3.78c0-.52-.39-.78-1.09-.78a5.51,5.51,0,0,0-.57,0v-.7a53,53,0,0,0,5.47-.78Z" transform="translate(-47.4 -26)"/><path class="cls-1" d="M211.31,123.71c-1.46,2.6-3.07,3.62-5.08,3.62a3.47,3.47,0,0,1-3.8-3.83c0-4.3,3.72-8.54,7.5-8.54,1.69,0,2.73.94,2.73,2.27a4.52,4.52,0,0,1-1.8,3.18c-1.12.94-2.37,1.41-4.89,1.85a6.07,6.07,0,0,0-.16,1.28c0,1.41.57,2.14,1.67,2.14s1.87-.6,3.07-2.4Zm-1.85-7.89c-1.25,0-2.37,2-3.31,5.6a5,5,0,0,0,4.11-4.58C210.27,116.24,210.09,115.82,209.46,115.82Z" transform="translate(-47.4 -26)"/><path class="cls-1" d="M222.87,123.76a9.5,9.5,0,0,1-3,3.1,4.57,4.57,0,0,1-2.16.47,3.65,3.65,0,0,1-4-3.93,8.93,8.93,0,0,1,2.73-6.22,6.64,6.64,0,0,1,4.69-2.21c1.56,0,2.92,1,2.92,2.34a1.66,1.66,0,0,1-1.61,1.85,1.41,1.41,0,0,1-1.51-1.38c0-.78.55-.94.55-1.51,0-.26-.31-.44-.62-.44-1,0-1.69,1-2.42,2.29a11.38,11.38,0,0,0-1.38,5.23c0,1.51.76,2.32,1.9,2.32s1.93-.62,3.18-2.37Z" transform="translate(-47.4 -26)"/><path class="cls-1" d="M230.57,116.4l-.89,3.1a35.78,35.78,0,0,0-1.38,5.44.41.41,0,0,0,.42.47c.42,0,1.09-.7,2-2.08l.6.39c-1.72,2.68-2.86,3.52-4.43,3.52a1.54,1.54,0,0,1-1.74-1.69,15.3,15.3,0,0,1,.65-3l1.74-6.14h-1.35v-.91a8.3,8.3,0,0,0,4.79-4h.91l-1,3.77h1.87v1.09Z" transform="translate(-47.4 -26)"/><path class="cls-1" d="M238.85,123.66c-1.72,2.81-2.81,3.57-4.37,3.57a1.55,1.55,0,0,1-1.77-1.64,8.89,8.89,0,0,1,.39-2l1.43-5.29a5.43,5.43,0,0,0,.21-1.17c0-.5-.42-.76-1.2-.76h-.36v-.7a39.18,39.18,0,0,0,5.29-.73l-2.37,8.7a6.49,6.49,0,0,0-.23,1.33.36.36,0,0,0,.39.42c.39,0,1-.6,1.67-1.59l.36-.52Zm-1.14-11a1.72,1.72,0,0,1-1.72-1.8,1.76,1.76,0,0,1,1.69-1.69,1.79,1.79,0,0,1,1.8,1.77A1.73,1.73,0,0,1,237.7,112.67Z" transform="translate(-47.4 -26)"/><path class="cls-1" d="M247.28,115a3.74,3.74,0,0,1,4.09,3.93,9.51,9.51,0,0,1-2.73,6.48,6.29,6.29,0,0,1-4.56,2c-2.45,0-4.27-1.3-4.27-3.85a9.2,9.2,0,0,1,2.6-6.51,6.75,6.75,0,0,1,4.76-2Zm-.23.76a2.1,2.1,0,0,0-1.56.81c-1.56,1.74-2.58,5.73-2.58,8.38,0,1.15.49,1.67,1.28,1.67A2.21,2.21,0,0,0,246,125.3a18.21,18.21,0,0,0,2.24-8C248.27,116.32,247.8,115.72,247,115.72Z" transform="translate(-47.4 -26)"/><path class="cls-1" d="M265.77,123.82c-1.43,2.52-2.6,3.41-4.17,3.41-1.12,0-1.77-.49-1.77-1.56a12.43,12.43,0,0,1,.68-3.25l1.43-4.3a5.8,5.8,0,0,0,.18-.73c0-.44-.31-.55-.65-.55s-1.28.7-1.8,1.41c-1.61,2.11-2.58,4.22-3.78,8.75h-3.15l1.48-5.31A41.2,41.2,0,0,0,255.4,117c0-.49-.34-.6-1.43-.62v-.7a32.38,32.38,0,0,0,5.18-.7l-1.61,5.16h0a21.09,21.09,0,0,1,3.18-4.11,3.78,3.78,0,0,1,2.6-1.07c1.33,0,1.9.73,1.9,2a11.9,11.9,0,0,1-.73,3l-.91,2.71A9.76,9.76,0,0,0,263,125a.4.4,0,0,0,.36.44c.44,0,.81-.36,1.85-2Z" transform="translate(-47.4 -26)"/><path class="cls-2" d="M92.46,82.24A9.68,9.68,0,0,0,94,78.61a5.11,5.11,0,0,1,3.18-3.56,8,8,0,0,1,2.72-.83c-.54.81-1.14,1.51-1.57,2.32A11.81,11.81,0,0,0,97,83.49a13.56,13.56,0,0,0,1.73,5.92c1.25,1.95,2.93,3.46,5.35,3.56a3.82,3.82,0,0,0,3.18-1.55c1.3-1.64.86-3.38.4-5.14-.28-1.06-1-1.93-1.25-3A5.12,5.12,0,0,1,107.55,79a10.43,10.43,0,0,1,3.62-2.7c0-.12.18-.19.26-.11s0,.27-.13.36a15.62,15.62,0,0,0-1.49,4.92,19,19,0,0,0-.12,3.09,14.47,14.47,0,0,0,.72,4.27,24.53,24.53,0,0,0,2,4.77,6.14,6.14,0,0,0,3.75,3.07,3.92,3.92,0,0,0,4.71-1.91,5.29,5.29,0,0,0,.07-3.45,10,10,0,0,0-1.25-2.76,5.13,5.13,0,0,1-.37-4.56,12.49,12.49,0,0,1,3.33-4.86c.19-.18.32-.2.5,0a13.12,13.12,0,0,1,3.4,5.17,5.48,5.48,0,0,1-.72,4.77,9.55,9.55,0,0,0-1.3,3.92c-.17,1.39,1.15,3.46,2.47,3.67a5.64,5.64,0,0,0,5.06-1.32,13,13,0,0,0,2.57-4.3A15.86,15.86,0,0,0,136,86.44a18.82,18.82,0,0,0,.07-4.67,17.47,17.47,0,0,0-.72-3.39c-.19-.57-.42-1.12-.65-1.73a4,4,0,0,1,1.5.81A6.08,6.08,0,0,1,139,82.61a4,4,0,0,1-.5,1.81,9.61,9.61,0,0,0-1.28,4.91,4,4,0,0,0,3.36,3.56A5.42,5.42,0,0,0,145,91.3a10,10,0,0,0,3.08-6.35,17.52,17.52,0,0,0,.26-3.11,11,11,0,0,0-1.86-6,4.69,4.69,0,0,0-1.25-1.6,5.67,5.67,0,0,1,2.06.39,6.3,6.3,0,0,1,4,3.36c.32.71.37,1.51.68,2.24a6.17,6.17,0,0,0,2.31,3.11,3.5,3.5,0,0,0,3.78-.1c2-1.41,2.21-3.77,1.67-5.95a19.46,19.46,0,0,0-2.54-5.8A17.2,17.2,0,0,0,153,67a20.55,20.55,0,0,0-7.79-3.34,11.55,11.55,0,0,0-1.32-.15c-.38,0-.66-.05-.34-.61A26.37,26.37,0,0,0,146.22,57a23.8,23.8,0,0,0,.76-8.26,19.81,19.81,0,0,0-1.45-6.11,23.87,23.87,0,0,0-2.73-5,23.33,23.33,0,0,0-2.85-3.3,31.91,31.91,0,0,0-3-2.48c-7.37-5.59-18.22-6.58-26.23-1.62a31.31,31.31,0,0,0-4.5,3.27A24.4,24.4,0,0,0,101,40a27.6,27.6,0,0,0-2.53,7.1,9.87,9.87,0,0,0-.16,1.58c0,.62-.1,1.25-.1,1.86a21,21,0,0,0,.29,3.84A23.68,23.68,0,0,0,101,61.6c.28.53.56,1.06.89,1.57.21.33.1.35-.21.38a20,20,0,0,0-6.19,1.75,15.91,15.91,0,0,0-4.9,3.42,17.22,17.22,0,0,0-3.85,6c-1,2.51-2,5.91.21,8.09A3.63,3.63,0,0,0,92.46,82.24ZM128.61,51c0-.61,0-1.22,0-1.82h0c0-1.17,0-2.34,0-3.51a3.05,3.05,0,0,1,.6-1.9c.9-1.08,1.54-1,2.35.12a3.35,3.35,0,0,1,.55,1.92c0,2.25,0,4.5,0,6.76a4.1,4.1,0,0,1-.47,1.77,1.36,1.36,0,0,1-1.46.93A1.8,1.8,0,0,1,128.86,54,8.28,8.28,0,0,1,128.61,51Zm1.19,8.4a9,9,0,0,1-6.7,4.37,7.94,7.94,0,0,1-8.27-4.22C119.88,62.3,124.85,62.35,129.8,59.42ZM112.1,49.23q0-1.76,0-3.52a3.58,3.58,0,0,1,.83-2.23c.59-.75,1.61-.53,2.16.45a4,4,0,0,1,.53,1.94c0,2.19,0,4.37,0,6.56a3.22,3.22,0,0,1-.83,2.42,1.26,1.26,0,0,1-2.13-.38,4.57,4.57,0,0,1-.55-2.27C112.14,51.22,112.1,50.22,112.1,49.23Z" transform="translate(-47.4 -26)"/><path class="cls-3" d="M111.42,76.16c-.07-.08-.21,0-.26.11.23,0,.22.1.12.25C111.4,76.43,111.57,76.32,111.42,76.16Z" transform="translate(-47.4 -26)"/><path class="cls-3" d="M111.16,76.27c.2,0,.11.15.12.25C111.39,76.37,111.4,76.26,111.16,76.27Z" transform="translate(-47.4 -26)"/><path class="cls-1" d="M171.84,77.15c-.88,0-1.45.32-1.45.92,0,2,5.24.91,5.23,4.41,0,1.83-1.59,2.89-3.74,2.89a6.34,6.34,0,0,1-4.13-1.56l.78-1.58a5.49,5.49,0,0,0,3.37,1.44c1,0,1.67-.39,1.67-1.07,0-2-5.24-.88-5.24-4.35,0-1.7,1.46-2.79,3.65-2.79a6.64,6.64,0,0,1,3.53,1l-.75,1.62A6.25,6.25,0,0,0,171.84,77.15Z" transform="translate(-47.4 -26)"/><path class="cls-1" d="M184.27,75.53v1.66h-3v8.1h-1.88v-8.1h-3V75.53Z" transform="translate(-47.4 -26)"/><path class="cls-1" d="M191.7,85.29,190,82.4h-2.55v2.87h-1.87V75.53h4.07c2.52,0,4,1.21,4,3.36a3.17,3.17,0,0,1-1.94,3.17l2.15,3.24Zm-4.24-4.52h2.2c1.39,0,2.18-.6,2.18-1.83s-.78-1.78-2.18-1.78h-2.2Z" transform="translate(-47.4 -26)"/><path class="cls-1" d="M202,83.23h-4.77l-.86,2.06h-1.94l4.28-9.76h1.94l4.23,9.76h-2Zm-.67-1.6-1.7-4.1-1.73,4.1Z" transform="translate(-47.4 -26)"/><path class="cls-1" d="M209.23,77.15c-.88,0-1.45.32-1.45.92,0,2,5.24.91,5.23,4.41,0,1.83-1.59,2.89-3.74,2.89a6.34,6.34,0,0,1-4.13-1.56l.78-1.58a5.49,5.49,0,0,0,3.37,1.44c1,0,1.67-.39,1.67-1.07,0-2-5.24-.88-5.24-4.35,0-1.7,1.46-2.79,3.65-2.79a6.64,6.64,0,0,1,3.53,1l-.75,1.62A6.24,6.24,0,0,0,209.23,77.15Z" transform="translate(-47.4 -26)"/><path class="cls-1" d="M222.48,78a2.14,2.14,0,0,1-1.7,2.16,2.39,2.39,0,0,1,2.08,2.47c0,1.67-1.38,2.69-3.61,2.69h-4.46V75.53h4.34C221.2,75.53,222.48,76.46,222.48,78Zm-1.91.33c0-.74-.59-1.17-1.55-1.16h-2.37v2.37H219C220,79.52,220.57,79.07,220.57,78.3Zm.35,4.06c0-.79-.71-1.28-1.9-1.27h-2.37v2.58H219C220.21,83.69,220.92,83.2,220.92,82.36Z" transform="translate(-47.4 -26)"/><path class="cls-1" d="M234.31,80.41a5.21,5.21,0,1,1-5.2-4.94A5,5,0,0,1,234.31,80.41Zm-8.49,0a3.31,3.31,0,0,0,3.32,3.29,3.28,3.28,0,1,0-3.32-3.29Z" transform="translate(-47.4 -26)"/><path class="cls-1" d="M240.09,83.7a2.26,2.26,0,0,0,2.41-2.48V75.53h1.87v5.69a3.91,3.91,0,0,1-4.28,4.16c-2.66,0-4.34-1.59-4.34-4.16V75.53h1.87v5.69A2.31,2.31,0,0,0,240.09,83.7Z" transform="translate(-47.4 -26)"/><path class="cls-1" d="M252.69,85.29,251,82.4h-2.55v2.87h-1.87V75.53h4.07c2.52,0,4,1.21,4,3.36a3.17,3.17,0,0,1-1.94,3.17l2.15,3.24Zm-4.24-4.52h2.2c1.39,0,2.18-.6,2.18-1.83s-.78-1.78-2.18-1.78h-2.2Z" transform="translate(-47.4 -26)"/><path class="cls-1" d="M263.29,80.44h1.63v3.67a6.84,6.84,0,0,1-3.86,1.27,5,5,0,1,1,.11-9.9A6,6,0,0,1,265,76.87l-1.06,1.37a4.18,4.18,0,0,0-2.76-1.1,3.29,3.29,0,1,0,0,6.57,4.5,4.5,0,0,0,2.11-.61Z" transform="translate(-47.4 -26)"/><path class="cls-1" d="M169.6,89.74v6H168v-6Z" transform="translate(-47.4 -26)"/><path class="cls-1" d="M172.15,89.74l2.73,3.62V89.74h1.46v6H175l-2.73-3.6v3.6h-1.47v-6Z" transform="translate(-47.4 -26)"/><path class="cls-1" d="M183.29,92.74a3,3,0,0,1-3.26,3h-2.53v-6h2.59A3,3,0,0,1,183.29,92.74Zm-1.6,0A1.61,1.61,0,0,0,180.06,91h-1v3.46h1.06A1.57,1.57,0,0,0,181.69,92.75Z" transform="translate(-47.4 -26)"/><path class="cls-1" d="M185.65,89.74v6h-1.57v-6Z" transform="translate(-47.4 -26)"/><path class="cls-1" d="M191.55,89.74V91h-3.17v1.12h2.86v1.24h-2.86v1.13h3.26v1.25h-4.83v-6Z" transform="translate(-47.4 -26)"/><path class="cls-1" d="M199.15,92.68h1.35V95a4.82,4.82,0,0,1-2.5.77,3.07,3.07,0,0,1-3.21-3.07,3.11,3.11,0,0,1,3.32-3.05,3.86,3.86,0,0,1,2.47.89l-.89,1.1A2.43,2.43,0,0,0,198.1,91a1.73,1.73,0,0,0,0,3.45,2.45,2.45,0,0,0,1-.28Z" transform="translate(-47.4 -26)"/><path class="cls-1" d="M205.55,94.68H203l-.42,1.06h-1.61l2.58-6h1.61l2.52,6H206Zm-.46-1.2-.82-2.14-.84,2.14Z" transform="translate(-47.4 -26)"/><path class="cls-1" d="M209.89,89.74l1.59,3.51,1.59-3.51h1.71v6H213.4V91.94L212,95.15h-1l-1.4-3.21v3.81h-1.4v-6Z" transform="translate(-47.4 -26)"/><path class="cls-1" d="M220.7,89.74V91h-3.17v1.12h2.86v1.24h-2.86v1.13h3.26v1.25H216v-6Z" transform="translate(-47.4 -26)"/><path class="cls-1" d="M227.18,91a1.7,1.7,0,0,0,0,3.39,2.23,2.23,0,0,0,1.49-.7l.92,1a3.59,3.59,0,0,1-2.49,1.11,3.06,3.06,0,1,1,.06-6.12,3.45,3.45,0,0,1,2.43,1l-.91,1.09A2,2,0,0,0,227.18,91Z" transform="translate(-47.4 -26)"/><path class="cls-1" d="M236.27,92.74a3.26,3.26,0,1,1-3.25-3A3.09,3.09,0,0,1,236.27,92.74Zm-4.89,0A1.7,1.7,0,0,0,233,94.48a1.72,1.72,0,1,0-1.65-1.73Z" transform="translate(-47.4 -26)"/><path class="cls-1" d="M238.43,89.74l2.73,3.62V89.74h1.46v6h-1.37l-2.73-3.6v3.6h-1.47v-6Z" transform="translate(-47.4 -26)"/><path class="cls-1" d="M248.42,89.74V91h-1.8v4.71h-1.57V91h-1.78V89.74Z" transform="translate(-47.4 -26)"/><path class="cls-1" d="M253.8,89.74V91h-3.17v1.12h2.86v1.24h-2.86v1.13h3.26v1.25h-4.83v-6Z" transform="translate(-47.4 -26)"/><path class="cls-1" d="M257,90.95c-.38,0-.63.14-.63.41,0,1,3.16.43,3.16,2.59,0,1.23-1.08,1.85-2.42,1.85a4.51,4.51,0,0,1-2.77-1l.61-1.23a3.84,3.84,0,0,0,2.18.91c.46,0,.75-.17.75-.49,0-1-3.16-.4-3.16-2.53,0-1.12,1-1.83,2.4-1.83a4.6,4.6,0,0,1,2.4.68L259,91.59A4.68,4.68,0,0,0,257,90.95Z" transform="translate(-47.4 -26)"/><path class="cls-1" d="M265,89.74V91h-1.8v4.71h-1.57V91h-1.78V89.74Z" transform="translate(-47.4 -26)"/></svg>