<svg xmlns="http://www.w3.org/2000/svg" xmlns:xlink="http://www.w3.org/1999/xlink" viewBox="0 0 332.27 330.31"><defs><style>.cls-1{fill:url(#Dégradé_sans_nom_195);}.cls-2{fill:#e42185;}.cls-3{fill:#fff;}.cls-4{fill:#1d71b8;}.cls-5{fill:#009fe3;}.cls-6{fill:#1d1d1b;}</style><radialGradient id="Dégradé_sans_nom_195" cx="212.96" cy="175.85" r="165.15" gradientUnits="userSpaceOnUse"><stop offset="0.56" stop-color="#fdc41f"/><stop offset="0.65" stop-color="#fdd255" stop-opacity="0.76"/><stop offset="0.78" stop-color="#fee59d" stop-opacity="0.44"/><stop offset="0.88" stop-color="#fff3d2" stop-opacity="0.2"/><stop offset="0.96" stop-color="#fffcf3" stop-opacity="0.06"/><stop offset="1" stop-color="#fff" stop-opacity="0"/></radialGradient></defs><title>play18_nominee2</title><g id="Ebene_1" data-name="Ebene 1"><path class="cls-1" d="M213,10.69A165.15,165.15,0,1,0,378.12,175.85,165.15,165.15,0,0,0,213,10.69ZM322.13,186.54l-8.26,9.26L318,207.53,308,215l1.72,12.29-11.18,5.4-.71,12.39-12,3.11-3.11,12-12.39.71L265,272.1l-12.29-1.72-7.47,9.91-11.72-4.09-9.26,8.26-10.7-6.3-10.7,6.3-9.26-8.26-11.72,4.09-7.47-9.91-12.29,1.72-5.4-11.18-12.39-.71-3.11-12-12-3.11-.71-12.39-11.18-5.4L119,215l-9.91-7.47,4.09-11.72-8.26-9.26,6.3-10.7-6.3-10.7,8.26-9.26-4.09-11.72,9.91-7.47-1.72-12.29,11.18-5.4.71-12.39,12-3.11,3.11-12,12.39-.71,5.4-11.18,12.29,1.72,7.47-9.91,11.72,4.09,9.26-8.26,10.7,6.3,10.7-6.3,9.26,8.26,11.72-4.09,7.47,9.91L265,79.59l5.4,11.18,12.39.71,3.11,12,12,3.11.71,12.39,11.18,5.4L308,136.69l9.91,7.47-4.09,11.72,8.26,9.26-6.3,10.7Z" transform="translate(-47.81 -10.69)"/></g><g id="Ebene_2" data-name="Ebene 2"><path class="cls-2" d="M170.69,134.09c-31.37,2.13-47.88,21.51-21.8,76.66,9.56,20.2,25.35,26.07,33.8-3.22,4.55-15.74,8.55-12.7,34.39-16.08,22.95-3,26.78-7.12,32.47,3.78C263,221,280.47,220.6,285.21,193c9.36-54.41-1.59-74.73-33.33-70.85-12.26,1.5-18.28,7.3-20.16,14.77-2.36,9.38-38.22,13.57-41.89,7.59C184,135,183,133.25,170.69,134.09Z" transform="translate(-47.81 -10.69)"/><path class="cls-2" d="M170.69,134.09c-31.37,2.13-47.88,21.51-21.8,76.66,9.56,20.2,25.35,26.07,33.8-3.22,4.55-15.74,8.55-12.7,34.39-16.08,22.95-3,26.78-7.12,32.47,3.78C263,221,280.47,220.6,285.21,193c9.36-54.41-1.59-74.73-33.33-70.85-12.26,1.5-18.28,7.3-20.16,14.77-2.36,9.38-38.22,13.57-41.89,7.59C184,135,183,133.25,170.69,134.09Z" transform="translate(-47.81 -10.69)"/><rect class="cls-3" x="165.83" y="154.76" width="2.19" height="40.37" transform="translate(-74.53 19.44) rotate(-9.55)"/><rect class="cls-3" x="146.73" y="173.86" width="40.37" height="2.19" transform="translate(-74.53 19.44) rotate(-9.55)"/><ellipse class="cls-3" cx="270.76" cy="148.75" rx="6.73" ry="7.05" transform="translate(-60.66 15.58) rotate(-5.43)"/><circle class="cls-3" cx="258.2" cy="167.94" r="10.62" transform="translate(-62.54 14.48) rotate(-5.43)"/><path class="cls-4" d="M376.31,280.32c1.07.61-11.58-18.66-11.58-18.66s16.74-9.35,15.26-9.81c0,0-29.56-10.32-48.8-8.72S326.49,259,326.49,259l-22.85,9.49S349.34,264.91,376.31,280.32Z" transform="translate(-47.81 -10.69)"/><path class="cls-4" d="M53.16,280.58c-1.07.61,11.58-18.66,11.58-18.66S48,252.57,49.48,252.12c0,0,29.56-10.32,48.8-8.72S103,259.23,103,259.23l22.85,9.49S80.12,265.16,53.16,280.58Z" transform="translate(-47.81 -10.69)"/><path class="cls-5" d="M99.3,230.77c39.73-11.86,158.52-21.94,233.09,0,3.46,1-1,29.47-6.33,28.07-77.22-20.31-163.48-13.79-223.09.4C100.58,259.8,96.33,231.65,99.3,230.77Z" transform="translate(-47.81 -10.69)"/><path class="cls-3" d="M141.06,242.29a6.06,6.06,0,0,1-2.36.87,4.52,4.52,0,0,1-5.69-3.86,4.82,4.82,0,0,1,4.12-5.91,5.5,5.5,0,0,1,2.37,0l-.12,1.44a4.65,4.65,0,0,0-1.91,0,3.19,3.19,0,0,0-2.66,4.08,3.15,3.15,0,0,0,3.92,2.79,4.9,4.9,0,0,0,1.81-.7Z" transform="translate(-47.81 -10.69)"/><path class="cls-3" d="M141.12,233a16.6,16.6,0,0,1,2.59-.59,4.45,4.45,0,0,1,3,.33,2.43,2.43,0,0,1,1.1,1.78,2.56,2.56,0,0,1-1.36,2.64v0a2.44,2.44,0,0,1,1.6,1.63,19.16,19.16,0,0,0,1.14,2.54l-1.79.27a13.54,13.54,0,0,1-1-2.15c-.45-1.2-1-1.53-2-1.41l-.87.13.58,3.9-1.72.25Zm2.34,3.94,1-.15c1.17-.17,1.81-.9,1.67-1.85s-1-1.41-2.08-1.25a5,5,0,0,0-1.06.24Z" transform="translate(-47.81 -10.69)"/><path class="cls-3" d="M155.26,236.33l-3.59.45.35,2.8,4-.5.18,1.43-5.75.71-1.18-9.52,5.54-.69.18,1.43-3.8.47.31,2.46,3.59-.45Z" transform="translate(-47.81 -10.69)"/><path class="cls-3" d="M159.31,237.42l-.54,2.79-1.8.19,2.06-9.86,2.22-.23,4.1,9.22-1.87.2-1.15-2.61Zm2.6-1.6-1-2.27c-.24-.56-.47-1.2-.67-1.73h0c-.08.57-.16,1.25-.27,1.83l-.49,2.43Z" transform="translate(-47.81 -10.69)"/><path class="cls-3" d="M166.62,231.26l-2.72.24-.13-1.46,7.22-.64.13,1.46-2.75.25.72,8.09-1.74.16Z" transform="translate(-47.81 -10.69)"/><path class="cls-3" d="M173.92,229.19l.74,9.56-1.75.14-.74-9.56Z" transform="translate(-47.81 -10.69)"/><path class="cls-3" d="M178.83,238.45l-3.73-9.37L177,229l1.6,4.26c.45,1.18.84,2.28,1.17,3.43h0c.18-1.15.44-2.34.75-3.53l1.1-4.47,1.86-.12-2.67,9.8Z" transform="translate(-47.81 -10.69)"/><path class="cls-3" d="M190.29,233.52l-3.61.19.15,2.81,4-.21.08,1.43-5.78.3-.5-9.57,5.57-.29.08,1.43-3.82.2.13,2.47,3.61-.19Z" transform="translate(-47.81 -10.69)"/><path class="cls-3" d="M203,236.85a9.49,9.49,0,0,1-3.07.64,5.17,5.17,0,0,1-3.8-1.15,4.75,4.75,0,0,1-1.45-3.48c-.1-3,2-5,5.17-5.15a6.36,6.36,0,0,1,2.56.37l-.34,1.42a5.17,5.17,0,0,0-2.19-.34,3.21,3.21,0,0,0-3.37,3.56,3.17,3.17,0,0,0,3.44,3.36,3.36,3.36,0,0,0,1.32-.24l-.08-2.39-1.69.06,0-1.38,3.38-.11Z" transform="translate(-47.81 -10.69)"/><path class="cls-3" d="M206.68,234.49l-.78,2.73-1.81,0,2.9-9.65,2.24,0,3.29,9.54-1.88,0-.92-2.7Zm2.72-1.37-.8-2.35c-.2-.58-.36-1.23-.52-1.79h0c-.13.56-.26,1.23-.42,1.8l-.7,2.38Z" transform="translate(-47.81 -10.69)"/><path class="cls-3" d="M221.87,233.17c-.06-1.24-.13-2.73-.12-4h0c-.31,1.17-.71,2.46-1.14,3.67L219.18,237h-1.35l-1.29-4.1c-.37-1.22-.71-2.53-1-3.73h0c0,1.25-.1,2.78-.17,4.09l-.21,3.86h-1.64l.63-9.6h2.31l1.26,3.86c.34,1.12.64,2.26.89,3.33h0c.26-1,.58-2.22,1-3.35l1.32-3.85h2.28l.57,9.59h-1.71Z" transform="translate(-47.81 -10.69)"/><path class="cls-3" d="M227.39,227.55l-.12,9.6-1.75,0,.12-9.6Z" transform="translate(-47.81 -10.69)"/><path class="cls-3" d="M229.23,237.16l.24-9.58,2,0,2.37,4.17a26.35,26.35,0,0,1,1.56,3.25h0c-.08-1.28-.09-2.52-.06-4l.08-3.34,1.62,0-.24,9.58-1.81,0-2.4-4.27a33.36,33.36,0,0,1-1.64-3.36h0c0,1.24,0,2.5,0,4.08l-.08,3.43Z" transform="translate(-47.81 -10.69)"/><path class="cls-3" d="M246.52,237.3a9.51,9.51,0,0,1-3.11.41,5.17,5.17,0,0,1-3.7-1.44,4.75,4.75,0,0,1-1.19-3.58c.13-3,2.37-4.89,5.54-4.75a6.36,6.36,0,0,1,2.53.56l-.44,1.39a5.17,5.17,0,0,0-2.16-.5,3.21,3.21,0,0,0-3.63,3.3,3.17,3.17,0,0,0,3.18,3.61,3.35,3.35,0,0,0,1.33-.14l.1-2.39-1.69-.07.06-1.38,3.38.14Z" transform="translate(-47.81 -10.69)"/><path class="cls-3" d="M253.26,235.41l-1,2.66-1.8-.12,3.71-9.37,2.23.15,2.47,9.78-1.87-.12-.69-2.77Zm2.83-1.14-.6-2.41c-.15-.59-.26-1.26-.36-1.82h0c-.18.54-.37,1.2-.57,1.76l-.9,2.31Z" transform="translate(-47.81 -10.69)"/><path class="cls-3" d="M260.89,238.67l-1.5-9.76,1.86.16.52,4.42c.14,1.18.26,2.42.33,3.39h0c.24-1,.61-2.1,1-3.28l1.42-4.23,1.83.16.56,4.48c.14,1.16.25,2.24.3,3.28h0c.26-1,.59-2.11.94-3.25l1.37-4.24,1.77.16-3.41,9.33-1.87-.17-.6-4.58a27.45,27.45,0,0,1-.26-3.08h0c-.26,1-.53,1.91-.91,3l-1.5,4.4Z" transform="translate(-47.81 -10.69)"/><path class="cls-3" d="M273,237.09l-1.13,2.61-1.8-.2,4.14-9.19,2.22.25,2,9.88-1.87-.21-.56-2.8Zm2.88-1-.48-2.43c-.12-.6-.2-1.27-.28-1.84h0c-.2.54-.42,1.18-.65,1.73l-1,2.26Z" transform="translate(-47.81 -10.69)"/><path class="cls-3" d="M281,231.24a16.58,16.58,0,0,1,2.65.16,4.45,4.45,0,0,1,2.83,1.16,2.43,2.43,0,0,1,.56,2,2.56,2.56,0,0,1-2,2.15v0a2.44,2.44,0,0,1,1.08,2,19.15,19.15,0,0,0,.39,2.75l-1.79-.24a13.56,13.56,0,0,1-.33-2.33c-.1-1.28-.5-1.73-1.48-1.9l-.87-.12-.53,3.91-1.72-.23Zm1.15,4.44,1,.14c1.17.16,2-.36,2.12-1.31s-.53-1.62-1.65-1.78a5.06,5.06,0,0,0-1.08-.06Z" transform="translate(-47.81 -10.69)"/><path class="cls-3" d="M289.24,232.38a17.63,17.63,0,0,1,2.78.26,5.83,5.83,0,0,1,3.68,1.73,4.29,4.29,0,0,1,.9,3.72,5,5,0,0,1-2.09,3.52,6.41,6.41,0,0,1-4.49.59,19.17,19.17,0,0,1-2.31-.51Zm.41,8.3a6.56,6.56,0,0,0,.95.2c2.24.38,3.78-.63,4.17-3,.36-2.09-.65-3.48-2.82-3.84a5.64,5.64,0,0,0-1.2-.1Z" transform="translate(-47.81 -10.69)"/><path class="cls-6" d="M192.41,256.07h3c1.83,0,3.49.65,3.49,2.73s-1.86,2.76-3.26,2.76h-2V266h-1.18Zm1.18,4.39h2c1.18,0,2-.53,2-1.65s-.82-1.65-2-1.65h-2Z" transform="translate(-47.81 -10.69)"/><path class="cls-6" d="M200.15,256.07h1.18v8.86h4.56V266h-5.74Z" transform="translate(-47.81 -10.69)"/><path class="cls-6" d="M211,256.07h1.11l4.24,10H215l-6.09-2.21-.93,2.21H206.6Zm.53,1.52h0l-2.16,5.14,5,1.75Z" transform="translate(-47.81 -10.69)"/><path class="cls-6" d="M218.69,261.74,215,256.07h1.51l2.8,4.5,2.88-4.5h1.42l-3.71,5.67V266h-1.18Z" transform="translate(-47.81 -10.69)"/><path class="cls-6" d="M228.86,266H227.4v-9l-2,1.71-.87-1,3.06-2.48h1.31Z" transform="translate(-47.81 -10.69)"/><path class="cls-6" d="M236.26,260.35a2.52,2.52,0,0,1,.8.36,2.75,2.75,0,0,1,1.08,1.41,2.92,2.92,0,0,1,.16,1,3.06,3.06,0,0,1-.29,1.36,3,3,0,0,1-.78,1,3.56,3.56,0,0,1-1.15.63,4.31,4.31,0,0,1-1.39.22,4.38,4.38,0,0,1-1.39-.22,3.54,3.54,0,0,1-1.16-.63,3,3,0,0,1-.78-1,3.06,3.06,0,0,1-.29-1.36,3,3,0,0,1,.16-1,2.66,2.66,0,0,1,1.1-1.39,3.13,3.13,0,0,1,.78-.36v0a2.45,2.45,0,0,1-1.66-2.41,2.77,2.77,0,0,1,.26-1.21,2.88,2.88,0,0,1,.7-.93,3.08,3.08,0,0,1,1-.59,3.92,3.92,0,0,1,2.51,0,3.14,3.14,0,0,1,1,.58,2.74,2.74,0,0,1,1,2.12,2.59,2.59,0,0,1-.46,1.54,2.35,2.35,0,0,1-1.2.9ZM232.58,263a2.24,2.24,0,0,0,.15.84,1.79,1.79,0,0,0,.43.65,2,2,0,0,0,.67.42,2.34,2.34,0,0,0,.86.15,2.3,2.3,0,0,0,.85-.15,2,2,0,0,0,.66-.42,1.92,1.92,0,0,0,.43-.65,2.14,2.14,0,0,0,.16-.84,2,2,0,0,0-.59-1.46,1.91,1.91,0,0,0-.66-.43,2.42,2.42,0,0,0-1.69,0,2,2,0,0,0-1.11,1.07A2,2,0,0,0,232.58,263Zm.33-5.06a1.82,1.82,0,0,0,.13.69,1.67,1.67,0,0,0,.37.56,1.75,1.75,0,0,0,.57.37,1.82,1.82,0,0,0,.71.14,1.72,1.72,0,0,0,.69-.14,1.86,1.86,0,0,0,.57-.37,1.71,1.71,0,0,0,.38-.56,1.8,1.8,0,0,0,0-1.4,1.85,1.85,0,0,0-.38-.57,1.66,1.66,0,0,0-.56-.37,1.81,1.81,0,0,0-.69-.13,1.91,1.91,0,0,0-.71.13,1.62,1.62,0,0,0-.93.93A1.92,1.92,0,0,0,232.91,258Z" transform="translate(-47.81 -10.69)"/></g><g id="Nominee"><g id="Category_-_line" data-name="Category - line"><path d="M76.51,301.32H71.64v-1.66h4.87Z" transform="translate(-47.81 -10.69)"/><path d="M92.18,302.16h0l4.39-11.42h3.23v14.87H97.76V293.18h0l-4.94,12.43H91.46l-4.91-12.43h0v12.43h-2V290.74h3.23Z" transform="translate(-47.81 -10.69)"/><path d="M113.43,300.61a5.38,5.38,0,0,1-.41,2.12,5,5,0,0,1-1.13,1.67,5.11,5.11,0,0,1-1.71,1.09,6,6,0,0,1-4.24,0,5,5,0,0,1-1.7-1.09,5.12,5.12,0,0,1-1.12-1.67,5.38,5.38,0,0,1-.41-2.12,5.3,5.3,0,0,1,.41-2.11,5,5,0,0,1,1.12-1.65,5.09,5.09,0,0,1,1.7-1.08,6,6,0,0,1,4.24,0,5.21,5.21,0,0,1,1.71,1.08A5,5,0,0,1,113,298.5,5.3,5.3,0,0,1,113.43,300.61Zm-2.06,0a4.19,4.19,0,0,0-.22-1.36,3.45,3.45,0,0,0-.64-1.14,3.08,3.08,0,0,0-1-.79,3.59,3.59,0,0,0-2.84,0,3.08,3.08,0,0,0-1,.79,3.44,3.44,0,0,0-.64,1.14,4.3,4.3,0,0,0,0,2.72,3.56,3.56,0,0,0,.64,1.15,3,3,0,0,0,1,.8,3.6,3.6,0,0,0,2.84,0,3,3,0,0,0,1-.8,3.57,3.57,0,0,0,.64-1.15A4.19,4.19,0,0,0,111.37,300.62Z" transform="translate(-47.81 -10.69)"/><path d="M121.54,298.18a2.57,2.57,0,0,0-.95-.89,2.71,2.71,0,0,0-1.36-.35,3.14,3.14,0,0,0-.67.07,2,2,0,0,0-.6.23,1.27,1.27,0,0,0-.42.4,1.07,1.07,0,0,0-.16.6,1,1,0,0,0,.57.93,7,7,0,0,0,1.7.56,10.71,10.71,0,0,1,1.32.4,4.14,4.14,0,0,1,1.06.58,2.49,2.49,0,0,1,.7.83,2.42,2.42,0,0,1,.25,1.13,3,3,0,0,1-.34,1.49,2.91,2.91,0,0,1-.89,1,3.67,3.67,0,0,1-1.27.56,6.43,6.43,0,0,1-1.47.17,5.82,5.82,0,0,1-2.22-.44,4.34,4.34,0,0,1-1.8-1.34l1.41-1.2a3.21,3.21,0,0,0,1.1,1,3.08,3.08,0,0,0,1.54.4,3.5,3.5,0,0,0,.72-.07,2.05,2.05,0,0,0,.63-.24,1.22,1.22,0,0,0,.62-1.13,1.09,1.09,0,0,0-.66-1,8.92,8.92,0,0,0-1.94-.63q-.5-.13-1-.3a3.41,3.41,0,0,1-.93-.49,2.47,2.47,0,0,1-.68-.79,2.37,2.37,0,0,1-.26-1.17,2.76,2.76,0,0,1,.33-1.38,2.84,2.84,0,0,1,.85-.95,3.76,3.76,0,0,1,1.2-.55,5.41,5.41,0,0,1,1.39-.18,5.27,5.27,0,0,1,2.07.42A3.42,3.42,0,0,1,122.9,297Z" transform="translate(-47.81 -10.69)"/><path d="M130.36,297.27h-2.65v5.17a2,2,0,0,0,.34,1.29,1.35,1.35,0,0,0,1.07.39,3.22,3.22,0,0,0,.59-.06,2.37,2.37,0,0,0,.57-.17l.06,1.62a4.87,4.87,0,0,1-.79.2,5.32,5.32,0,0,1-.89.07,2.84,2.84,0,0,1-2.15-.78,3.24,3.24,0,0,1-.75-2.33v-5.4h-1.91v-1.62h1.91V292.8h2v2.86h2.65Z" transform="translate(-47.81 -10.69)"/><path d="M139.83,305.61h-2.08V290.74h2.08Z" transform="translate(-47.81 -10.69)"/><path d="M145.12,295.65q0,.38.06.85c0,.32,0,.58,0,.79h.06a2.91,2.91,0,0,1,.51-.75,3.72,3.72,0,0,1,2.72-1.17,3.88,3.88,0,0,1,1.66.33,3.37,3.37,0,0,1,1.16.87,3.53,3.53,0,0,1,.68,1.28,5.44,5.44,0,0,1,.22,1.58v6.17h-2v-5.52a6.77,6.77,0,0,0-.09-1.15,2.77,2.77,0,0,0-.35-1,1.88,1.88,0,0,0-.69-.67A2.27,2.27,0,0,0,148,297a2.39,2.39,0,0,0-1.92.89,3.6,3.6,0,0,0-.75,2.38v5.29h-2V297.8q0-.4,0-1t-.06-1.11Z" transform="translate(-47.81 -10.69)"/><path d="M157.34,295.65q0,.38.06.85c0,.32,0,.58,0,.79h.06a2.91,2.91,0,0,1,.51-.75,3.72,3.72,0,0,1,2.72-1.17,3.88,3.88,0,0,1,1.66.33,3.37,3.37,0,0,1,1.16.87,3.53,3.53,0,0,1,.68,1.28,5.44,5.44,0,0,1,.22,1.58v6.17h-2v-5.52a6.77,6.77,0,0,0-.09-1.15,2.77,2.77,0,0,0-.35-1,1.88,1.88,0,0,0-.69-.67,2.27,2.27,0,0,0-1.13-.25,2.39,2.39,0,0,0-1.92.89,3.6,3.6,0,0,0-.75,2.38v5.29h-2V297.8q0-.4,0-1t-.06-1.11Z" transform="translate(-47.81 -10.69)"/><path d="M177.86,300.61a5.38,5.38,0,0,1-.41,2.12,5,5,0,0,1-1.13,1.67,5.11,5.11,0,0,1-1.71,1.09,6,6,0,0,1-4.24,0,5,5,0,0,1-1.7-1.09,5.12,5.12,0,0,1-1.12-1.67,5.38,5.38,0,0,1-.41-2.12,5.3,5.3,0,0,1,.41-2.11,5,5,0,0,1,1.12-1.65,5.09,5.09,0,0,1,1.7-1.08,6,6,0,0,1,4.24,0,5.21,5.21,0,0,1,1.71,1.08,5,5,0,0,1,1.13,1.65A5.3,5.3,0,0,1,177.86,300.61Zm-2.06,0a4.19,4.19,0,0,0-.22-1.36,3.45,3.45,0,0,0-.64-1.14,3.08,3.08,0,0,0-1-.79,3.59,3.59,0,0,0-2.84,0,3.08,3.08,0,0,0-1,.79,3.44,3.44,0,0,0-.64,1.14,4.3,4.3,0,0,0,0,2.72,3.56,3.56,0,0,0,.64,1.15,3,3,0,0,0,1,.8,3.6,3.6,0,0,0,2.84,0,3,3,0,0,0,1-.8,3.57,3.57,0,0,0,.64-1.15A4.19,4.19,0,0,0,175.8,300.62Z" transform="translate(-47.81 -10.69)"/><path d="M185.27,305.61h-2.14l-4.05-10h2.18l2.92,7.83h0l2.94-7.83h2.1Z" transform="translate(-47.81 -10.69)"/><path d="M197.37,299.16a2,2,0,0,0-.67-1.65,2.79,2.79,0,0,0-1.79-.54,3.92,3.92,0,0,0-1.59.33,4,4,0,0,0-1.25.83l-1-1.26a5.31,5.31,0,0,1,1.8-1.09,6.42,6.42,0,0,1,2.28-.4,5.16,5.16,0,0,1,1.86.3,3.52,3.52,0,0,1,1.29.83,3.39,3.39,0,0,1,.76,1.24,4.57,4.57,0,0,1,.25,1.53v4.35q0,.5,0,1.06a5.43,5.43,0,0,0,.12.91h-1.79a6.2,6.2,0,0,1-.17-1.43h-.06a3.82,3.82,0,0,1-1.38,1.24,4.12,4.12,0,0,1-2,.44,5.17,5.17,0,0,1-1.23-.16,3.57,3.57,0,0,1-1.17-.51,2.9,2.9,0,0,1-.87-.95,2.81,2.81,0,0,1-.35-1.45A2.54,2.54,0,0,1,191,301a3.84,3.84,0,0,1,1.6-1,9,9,0,0,1,2.23-.45q1.24-.1,2.5-.1Zm-.48,1.7q-.74,0-1.52.06a7,7,0,0,0-1.43.25,2.7,2.7,0,0,0-1.06.57,1.29,1.29,0,0,0-.42,1,1.39,1.39,0,0,0,.18.74,1.48,1.48,0,0,0,.47.48,1.9,1.9,0,0,0,.65.26,3.58,3.58,0,0,0,.73.07,2.72,2.72,0,0,0,2.13-.83,3,3,0,0,0,.75-2.09v-.53Z" transform="translate(-47.81 -10.69)"/><path d="M207.21,297.27h-2.65v5.17a2,2,0,0,0,.34,1.29,1.35,1.35,0,0,0,1.07.39,3.22,3.22,0,0,0,.59-.06,2.37,2.37,0,0,0,.57-.17l.06,1.62a4.87,4.87,0,0,1-.79.2,5.32,5.32,0,0,1-.89.07,2.84,2.84,0,0,1-2.15-.78,3.24,3.24,0,0,1-.75-2.33v-5.4H200.7v-1.62h1.91V292.8h2v2.86h2.65Z" transform="translate(-47.81 -10.69)"/><path d="M211.56,292.06a1.18,1.18,0,0,1-.39.9,1.31,1.31,0,0,1-.93.36,1.26,1.26,0,0,1-.92-.37,1.2,1.2,0,0,1-.37-.89,1.23,1.23,0,0,1,.38-.91,1.26,1.26,0,0,1,.92-.37,1.3,1.3,0,0,1,.93.37A1.21,1.21,0,0,1,211.56,292.06Zm-.32,13.54h-2v-10h2Z" transform="translate(-47.81 -10.69)"/><path d="M219.37,305.61h-2.14l-4.05-10h2.18l2.92,7.83h0l2.94-7.83h2.1Z" transform="translate(-47.81 -10.69)"/><path d="M234.58,300.55v.34a2.77,2.77,0,0,1,0,.34h-7.92a2.93,2.93,0,0,0,.28,1.18,3.09,3.09,0,0,0,.7,1,3.3,3.3,0,0,0,2.25.87,3.33,3.33,0,0,0,1.74-.44,3.55,3.55,0,0,0,1.16-1.07l1.39,1.11a5,5,0,0,1-1.88,1.56,6,6,0,0,1-4.5.12,4.84,4.84,0,0,1-1.66-1.06,4.91,4.91,0,0,1-1.09-1.65,5.55,5.55,0,0,1-.4-2.14,5.71,5.71,0,0,1,.39-2.13,4.89,4.89,0,0,1,1.08-1.67,5,5,0,0,1,1.64-1.08,5.65,5.65,0,0,1,4,0,4.1,4.1,0,0,1,1.52,1,4.64,4.64,0,0,1,1,1.63A6.46,6.46,0,0,1,234.58,300.55Zm-2-.8a3.76,3.76,0,0,0-.2-1.1,2.53,2.53,0,0,0-.52-.89,2.45,2.45,0,0,0-.86-.6,3,3,0,0,0-1.21-.22,3.18,3.18,0,0,0-1.19.22,3.05,3.05,0,0,0-1,.6,3.15,3.15,0,0,0-.67.89,2.84,2.84,0,0,0-.3,1.1Z" transform="translate(-47.81 -10.69)"/><path d="M253.14,302.63h0V290.74h2.08v14.87h-2.62l-7.85-12.14h0v12.14h-2.08V290.74h2.71Z" transform="translate(-47.81 -10.69)"/><path d="M268.07,300.55v.34a2.77,2.77,0,0,1,0,.34h-7.92a2.93,2.93,0,0,0,.28,1.18,3.09,3.09,0,0,0,.7,1,3.3,3.3,0,0,0,2.25.87,3.33,3.33,0,0,0,1.74-.44,3.55,3.55,0,0,0,1.16-1.07l1.39,1.11a5,5,0,0,1-1.88,1.56,6,6,0,0,1-4.5.12,4.84,4.84,0,0,1-1.66-1.06,4.91,4.91,0,0,1-1.09-1.65,5.55,5.55,0,0,1-.4-2.14,5.71,5.71,0,0,1,.39-2.13,4.89,4.89,0,0,1,1.08-1.67,5,5,0,0,1,1.64-1.08,5.65,5.65,0,0,1,4,0,4.1,4.1,0,0,1,1.52,1,4.64,4.64,0,0,1,1,1.63A6.46,6.46,0,0,1,268.07,300.55Zm-2-.8a3.76,3.76,0,0,0-.2-1.1,2.53,2.53,0,0,0-.52-.89,2.45,2.45,0,0,0-.86-.6,3,3,0,0,0-1.21-.22,3.18,3.18,0,0,0-1.19.22,3.05,3.05,0,0,0-1,.6,3.15,3.15,0,0,0-.67.89,2.84,2.84,0,0,0-.3,1.1Z" transform="translate(-47.81 -10.69)"/><path d="M271.54,295.65l2.25,7.6h0l2.37-7.6h2.08l2.42,7.6h0l2.25-7.6h2.08l-3.3,10h-2.06l-2.46-7.48h0l-2.44,7.48h-2.06l-3.32-10Z" transform="translate(-47.81 -10.69)"/><path d="M294,298.18a2.41,2.41,0,0,0-.95-.81,2.89,2.89,0,0,0-1.34-.33,3.09,3.09,0,0,0-1.37.29,3.13,3.13,0,0,0-1,.79,3.45,3.45,0,0,0-.64,1.14,4.33,4.33,0,0,0,0,2.73,3.43,3.43,0,0,0,.64,1.14,3.1,3.1,0,0,0,1,.79,3.39,3.39,0,0,0,2.76,0,2.81,2.81,0,0,0,1-.8l1.32,1.2a4.27,4.27,0,0,1-1.58,1.14,5.33,5.33,0,0,1-2.14.41,5.84,5.84,0,0,1-2.13-.38,5,5,0,0,1-1.69-1.06,4.87,4.87,0,0,1-1.12-1.65,5.48,5.48,0,0,1-.41-2.16,5.55,5.55,0,0,1,.4-2.14,4.88,4.88,0,0,1,1.11-1.66,5,5,0,0,1,1.69-1.07,5.79,5.79,0,0,1,2.11-.38,5.53,5.53,0,0,1,2.09.42,3.82,3.82,0,0,1,1.65,1.22Z" transform="translate(-47.81 -10.69)"/><path d="M307.49,300.61a5.37,5.37,0,0,1-.41,2.12,5,5,0,0,1-1.13,1.67,5.12,5.12,0,0,1-1.71,1.09,6,6,0,0,1-4.24,0,5,5,0,0,1-1.7-1.09,5.11,5.11,0,0,1-1.12-1.67,5.37,5.37,0,0,1-.41-2.12,5.3,5.3,0,0,1,.41-2.11,5,5,0,0,1,1.12-1.65,5.09,5.09,0,0,1,1.7-1.08,6,6,0,0,1,4.24,0,5.22,5.22,0,0,1,1.71,1.08,4.94,4.94,0,0,1,1.13,1.65A5.3,5.3,0,0,1,307.49,300.61Zm-2.06,0a4.19,4.19,0,0,0-.22-1.36,3.43,3.43,0,0,0-.64-1.14,3.09,3.09,0,0,0-1-.79,3.59,3.59,0,0,0-2.84,0,3.08,3.08,0,0,0-1,.79,3.43,3.43,0,0,0-.64,1.14,4.31,4.31,0,0,0,0,2.72,3.56,3.56,0,0,0,.64,1.15,3,3,0,0,0,1,.8,3.6,3.6,0,0,0,2.84,0,3,3,0,0,0,1-.8,3.56,3.56,0,0,0,.64-1.15A4.19,4.19,0,0,0,305.43,300.62Z" transform="translate(-47.81 -10.69)"/><path d="M313.36,295.94a3.44,3.44,0,0,1,2-.56,3.59,3.59,0,0,1,1.82.46,3.09,3.09,0,0,1,1.27,1.53,3.56,3.56,0,0,1,1.41-1.48,3.92,3.92,0,0,1,2-.51,3.88,3.88,0,0,1,1.66.33,3.36,3.36,0,0,1,1.16.87,3.54,3.54,0,0,1,.68,1.28,5.48,5.48,0,0,1,.22,1.58v6.17h-2v-5.52a6.17,6.17,0,0,0-.1-1.15,2.94,2.94,0,0,0-.36-1,1.93,1.93,0,0,0-.67-.67,2.06,2.06,0,0,0-1.07-.25,2.23,2.23,0,0,0-1.15.28,2.4,2.4,0,0,0-.79.73,3.1,3.1,0,0,0-.44,1,4.88,4.88,0,0,0-.14,1.16v5.38h-2v-5.92a5,5,0,0,0-.11-1.07,2.17,2.17,0,0,0-.36-.83,1.76,1.76,0,0,0-.65-.55,2.2,2.2,0,0,0-1-.2,2.25,2.25,0,0,0-1.82.89,3.67,3.67,0,0,0-.72,2.38v5.29h-2V297.8c0-.27,0-.61,0-1s0-.79-.06-1.11H312c0,.25,0,.54.06.85s0,.58,0,.79h.06A3.37,3.37,0,0,1,313.36,295.94Z" transform="translate(-47.81 -10.69)"/><path d="M338.15,300.55v.34a2.77,2.77,0,0,1,0,.34h-7.92a2.93,2.93,0,0,0,.28,1.18,3.1,3.1,0,0,0,.7,1,3.3,3.3,0,0,0,2.25.87,3.33,3.33,0,0,0,1.74-.44,3.55,3.55,0,0,0,1.16-1.07l1.39,1.11a5,5,0,0,1-1.88,1.56,6,6,0,0,1-4.5.12,4.84,4.84,0,0,1-1.66-1.06,4.91,4.91,0,0,1-1.09-1.65,5.54,5.54,0,0,1-.4-2.14,5.7,5.7,0,0,1,.39-2.13,4.86,4.86,0,0,1,1.08-1.67,5,5,0,0,1,1.64-1.08,5.64,5.64,0,0,1,4,0,4.1,4.1,0,0,1,1.52,1,4.62,4.62,0,0,1,1,1.63A6.45,6.45,0,0,1,338.15,300.55Zm-2-.8a3.78,3.78,0,0,0-.2-1.1,2.54,2.54,0,0,0-.52-.89,2.46,2.46,0,0,0-.86-.6,3,3,0,0,0-1.21-.22,3.18,3.18,0,0,0-1.19.22,3,3,0,0,0-1,.6,3.14,3.14,0,0,0-.67.89,2.84,2.84,0,0,0-.3,1.1Z" transform="translate(-47.81 -10.69)"/><path d="M340.86,296.77q0-.63-.06-1.11h1.87c0,.25,0,.54.06.87s0,.6,0,.81h.06a3.44,3.44,0,0,1,1.23-1.42,3.21,3.21,0,0,1,1.82-.54,3,3,0,0,1,.78.08l-.08,1.83a3.75,3.75,0,0,0-.9-.1,2.75,2.75,0,0,0-1.24.26,2.53,2.53,0,0,0-.87.7,3,3,0,0,0-.51,1,4.29,4.29,0,0,0-.17,1.21v5.23h-2V297.8C340.88,297.53,340.87,297.19,340.86,296.77Z" transform="translate(-47.81 -10.69)"/><path d="M357.82,301.32H353v-1.66h4.87Z" transform="translate(-47.81 -10.69)"/></g><path class="cls-6" d="M193.14,320.88h0v-6.79h1.19v8.5h-1.5l-4.49-6.94h0v6.94h-1.19v-8.5h1.55Z" transform="translate(-47.81 -10.69)"/><path class="cls-6" d="M205,318.32a4.65,4.65,0,0,1-.34,1.81,4.19,4.19,0,0,1-2.37,2.34,4.83,4.83,0,0,1-1.8.33,4.78,4.78,0,0,1-1.79-.33,4.25,4.25,0,0,1-1.42-.92,4.18,4.18,0,0,1-.94-1.42,5.05,5.05,0,0,1,0-3.62,4.06,4.06,0,0,1,.94-1.4,4.25,4.25,0,0,1,1.42-.91,4.85,4.85,0,0,1,1.79-.32,4.9,4.9,0,0,1,1.8.32,4.24,4.24,0,0,1,1.43.91,4.15,4.15,0,0,1,.94,1.4A4.69,4.69,0,0,1,205,318.32Zm-1.28,0a3.77,3.77,0,0,0-.23-1.31,3.35,3.35,0,0,0-.65-1.09,3,3,0,0,0-1-.74,3.41,3.41,0,0,0-2.66,0,3,3,0,0,0-1,.74,3.41,3.41,0,0,0-.64,1.09,3.77,3.77,0,0,0-.23,1.31,3.86,3.86,0,0,0,.23,1.33,3.25,3.25,0,0,0,.65,1.09,3,3,0,0,0,1,.73,3.17,3.17,0,0,0,1.32.26,3.26,3.26,0,0,0,1.33-.26,3,3,0,0,0,1-.73,3.25,3.25,0,0,0,.65-1.09A3.86,3.86,0,0,0,203.7,318.32Z" transform="translate(-47.81 -10.69)"/><path class="cls-6" d="M211,320.61h0l2.51-6.53h1.85v8.5h-1.19v-7.1h0l-2.82,7.1h-.76l-2.81-7.1h0v7.1H206.6v-8.5h1.85Z" transform="translate(-47.81 -10.69)"/><path class="cls-6" d="M218.63,322.58h-1.19v-8.5h1.19Z" transform="translate(-47.81 -10.69)"/><path class="cls-6" d="M226.68,320.88h0v-6.79h1.19v8.5h-1.5l-4.49-6.94h0v6.94h-1.19v-8.5h1.55Z" transform="translate(-47.81 -10.69)"/><path class="cls-6" d="M231.14,321.52h4.44v1.06H230v-8.5h5.45v1h-4.26v2.54h4v1h-4Z" transform="translate(-47.81 -10.69)"/><path class="cls-6" d="M238.35,321.52h4.44v1.06h-5.63v-8.5h5.45v1h-4.26v2.54h4v1h-4Z" transform="translate(-47.81 -10.69)"/></g></svg>